<?xml version="1.0" standalone="no"?>
<!DOCTYPE svg PUBLIC "-//W3C//DTD SVG 20010904//EN"
 "http://www.w3.org/TR/2001/REC-SVG-20010904/DTD/svg10.dtd">
<svg version="1.0" xmlns="http://www.w3.org/2000/svg"
 width="118.000000pt" height="118.000000pt" viewBox="0 0 118.000000 118.000000"
 preserveAspectRatio="xMidYMid meet">
<metadata>
Created by potrace 1.14, written by Peter Selinger 2001-2017
</metadata>
<g transform="translate(0.000000,118.000000) scale(0.100000,-0.100000)"
fill="#000000" stroke="none">
<path d="M369 1166 c-2 -2 -26 -6 -52 -9 -63 -8 -153 -49 -190 -88 -51 -54
-70 -112 -64 -193 10 -114 65 -230 118 -248 13 -4 20 -100 17 -228 -4 -151 -1
-177 21 -228 31 -70 76 -107 159 -132 227 -67 449 -25 545 102 42 56 52 135
29 223 -5 18 -4 46 3 70 11 36 11 141 0 171 -2 7 10 15 27 18 47 9 85 58 114
149 54 172 13 283 -131 355 -55 27 -175 45 -192 29 -3 -4 17 -31 45 -61 83
-88 80 -137 -16 -235 l-47 -48 -35 15 c-47 19 -183 18 -239 -2 -52 -19 -71
-20 -71 -5 0 7 -20 31 -44 55 -77 78 -85 146 -23 201 18 16 40 39 50 50 18 21
18 22 -1 32 -11 6 -21 9 -23 7z"/>
</g>
</svg>
