<svg width="19" height="18" viewBox="0 0 19 18" fill="none" xmlns="http://www.w3.org/2000/svg">
<rect x="5.2998" y="3.6001" width="8.4" height="12" fill="white"/>
<path d="M9.5 0C11.8869 0 14.1761 0.948211 15.864 2.63604C17.5518 4.32387 18.5 6.61305 18.5 9C18.5 11.3869 17.5518 13.6761 15.864 15.364C14.1761 17.0518 11.8869 18 9.5 18C7.11305 18 4.82387 17.0518 3.13604 15.364C1.44821 13.6761 0.5 11.3869 0.5 9C0.5 6.61305 1.44821 4.32387 3.13604 2.63604C4.82387 0.948211 7.11305 0 9.5 0V0ZM9.5 3.85714C9.33677 3.857 9.1753 3.89091 9.02591 3.9567C8.87652 4.02248 8.74249 4.11871 8.63238 4.23922C8.52228 4.35972 8.43852 4.50187 8.38645 4.65658C8.33439 4.81129 8.31516 4.97516 8.33 5.13771L8.79929 10.2883C8.81748 10.4614 8.89915 10.6217 9.02854 10.7383C9.15793 10.8548 9.32588 10.9192 9.5 10.9192C9.67412 10.9192 9.84207 10.8548 9.97146 10.7383C10.1009 10.6217 10.1825 10.4614 10.2007 10.2883L10.6687 5.13771C10.6835 4.97526 10.6644 4.81151 10.6124 4.65689C10.5604 4.50227 10.4767 4.36018 10.3668 4.23969C10.2568 4.1192 10.1229 4.02295 9.97369 3.95709C9.82445 3.89122 9.66313 3.85718 9.5 3.85714V3.85714ZM9.5 14.1429C9.77279 14.1429 10.0344 14.0345 10.2273 13.8416C10.4202 13.6487 10.5286 13.3871 10.5286 13.1143C10.5286 12.8415 10.4202 12.5799 10.2273 12.387C10.0344 12.1941 9.77279 12.0857 9.5 12.0857C9.22721 12.0857 8.96558 12.1941 8.77269 12.387C8.5798 12.5799 8.47143 12.8415 8.47143 13.1143C8.47143 13.3871 8.5798 13.6487 8.77269 13.8416C8.96558 14.0345 9.22721 14.1429 9.5 14.1429V14.1429Z" fill="#BB4C4C"/>
</svg>
